# xmcd
#
# Track frame offsets:
#	150
#	13394
#	33746
#	45908
#	62924
#	76508
#	87449
#	101698
#	120146
#	134435
#	159083
#	177655
#	197134
#	209352
#	220797
#	234401
#	248866
#	263262
#	283584
#	301699
#	319134
#	331653
#
# Disc length: 4692
#
# Revision: 2
# Processed by: cddbd v1.5.1PL0 Copyright (c) Steve Scherf et al.
# Submitted via: EZCDDA 4.3.3.2
# Normalized: r1:DSETVAR1,TDELIM( - )
#
DISCID=23125216
DTITLE=Various Artist - ROMANTIC COLLECTION - LOVE FRANCE
DYEAR=1900
DGENRE=
TTITLE0=Yves Montand - Sous Le Ciel De Paris
TTITLE1=Joe Dassin - L'Ete Indien
TTITLE2=Mireille Mathieu - La Vielle Baroque
TTITLE3=Charles Aznavour - La Mamamma
TTITLE4=St. Frappelli - Padam padam
TTITLE5=N. Croisille - Un Homme Et Une Femme
TTITLE6=Herve Roy - Emmanuelle Song
TTITLE7=Dalida - Paroles Paroles
TTITLE8=Michel Legrand - Les Feuilles Mortes
TTITLE9=Patrick Bruel - Tout S'Efface
TTITLE10=Patricia Kaas - Mon Mec A Moi
TTITLE11=J. Birkin - Je T'Aims
TTITLE12=Henri Salvador - Petit Fleur
TTITLE13=Richard Galliano - La Liberte Est Une Fleur
TTITLE14=Salvatore Adamo - Tombe La Neige
TTITLE15=G. Mardel - Une Rose
TTITLE16=Guy Marchand - Hey Crooner
TTITLE17=Mylene Farmer - Et Si Viellir M'Etait Conte
TTITLE18=Michel Legrand - Les Moulins De Mon Coeur
TTITLE19=St. Grappelli - Les Parapluiers De Cherbourg
TTITLE20=Joe Dassin - A Toi
TTITLE21=Edith Piaf - Miilord
EXTD=
EXTT0=
EXTT1=
EXTT2=
EXTT3=
EXTT4=
EXTT5=
EXTT6=
EXTT7=
EXTT8=
EXTT9=
EXTT10=
EXTT11=
EXTT12=
EXTT13=
EXTT14=
EXTT15=
EXTT16=
EXTT17=
EXTT18=
EXTT19=
EXTT20=
EXTT21=
PLAYORDER=
